<svg xmlns="http://www.w3.org/2000/svg" width="93.352" height="21.11" viewBox="0 0 93.352 21.11">
  <g id="Logo-EHO" transform="translate(-1174.73 -714.39)">
    <path id="Path_7106" data-name="Path 7106" d="M12696.072,16059.438a3.114,3.114,0,0,1-.457-1.949v-3.275h.689v3.275a3.877,3.877,0,0,0,.109,1.086,1.024,1.024,0,0,0,.373.5,1.1,1.1,0,0,0,.633.174,1.128,1.128,0,0,0,.922-.352,2.5,2.5,0,0,0,.277-1.406v-3.275h.688v3.275a4.694,4.694,0,0,1-.162,1.352,1.555,1.555,0,0,1-.59.848,1.788,1.788,0,0,1-1.086.311A1.733,1.733,0,0,1,12696.072,16059.438Zm-14.1-.352a3.286,3.286,0,0,1-.574-1.955,3.409,3.409,0,0,1,.643-2.229,2.009,2.009,0,0,1,2.734-.441,2.4,2.4,0,0,1,.807,1.023,3.762,3.762,0,0,1,.3,1.574,3.407,3.407,0,0,1-.578,2.055,1.96,1.96,0,0,1-1.66.885A1.922,1.922,0,0,1,12681.977,16059.087Zm.574-3.7a2.8,2.8,0,0,0-.437,1.752,2.514,2.514,0,0,0,.443,1.584,1.348,1.348,0,0,0,1.08.557,1.37,1.37,0,0,0,1.094-.557,2.71,2.71,0,0,0,.449-1.682,3.429,3.429,0,0,0-.232-1.277,1.59,1.59,0,0,0-.527-.678,1.328,1.328,0,0,0-1.869.3Zm-14.738,3.7a3.282,3.282,0,0,1-.566-1.955,3.454,3.454,0,0,1,.641-2.229,2.006,2.006,0,0,1,2.732-.441,2.316,2.316,0,0,1,.807,1.023,3.762,3.762,0,0,1,.3,1.574,3.472,3.472,0,0,1-.568,2.055,1.977,1.977,0,0,1-1.67.885A1.942,1.942,0,0,1,12667.813,16059.087Zm.578-3.7a2.866,2.866,0,0,0-.441,1.752,2.491,2.491,0,0,0,.451,1.584,1.332,1.332,0,0,0,1.074.557,1.389,1.389,0,0,0,1.1-.557,2.737,2.737,0,0,0,.443-1.682,3.353,3.353,0,0,0-.232-1.277,1.543,1.543,0,0,0-.525-.678,1.3,1.3,0,0,0-.766-.258A1.329,1.329,0,0,0,12668.391,16055.388Zm44.293,4.516v-2.406l-1.8-3.283h.832l.916,1.711c.16.313.3.6.432.871.129-.271.287-.578.465-.912l.912-1.67h.789l-.033.057-1.826,3.227v2.406Zm-4.236,0v-4.945h-1.518v-.744h3.725v.744h-1.52v4.945Zm-3.051,0v-5.689h.686v5.689Zm-1.949,0-.01-.023-2.34-4.273v4.3h-.662v-5.689h.684l2.352,4.291v-4.291h.664v5.689Zm-10.771,0v-4.945h-1.518v-.744h3.732v.744h-1.529v4.945Zm-2.6,0-.633-1.191a7.209,7.209,0,0,0-.527-.918.993.993,0,0,0-.344-.3.972.972,0,0,0-.455-.078h-.66v2.492h-.691v-5.689h2.08a2.319,2.319,0,0,1,.967.158,1.282,1.282,0,0,1,.512.539,1.8,1.8,0,0,1,.2.869,1.609,1.609,0,0,1-.336,1.057,1.64,1.64,0,0,1-.885.494,1.71,1.71,0,0,1,.311.262,3.851,3.851,0,0,1,.479.721l.838,1.59Zm-2.619-3.213h1.268a1.632,1.632,0,0,0,.633-.1.709.709,0,0,0,.336-.311.993.993,0,0,0,.125-.5.85.85,0,0,0-.238-.639,1,1,0,0,0-.711-.23h-1.412Zm-10.367,3.213v-5.689h1.773a2.9,2.9,0,0,1,.91.1,1.287,1.287,0,0,1,.666.559,1.943,1.943,0,0,1,.236.992,1.982,1.982,0,0,1-.4,1.264,1.653,1.653,0,0,1-1.357.486h-1.145v2.285Zm.688-3.021h1.148a1.1,1.1,0,0,0,.793-.246.981.981,0,0,0,.246-.738,1.144,1.144,0,0,0-.119-.549.678.678,0,0,0-.295-.312,1.655,1.655,0,0,0-.629-.078h-1.145Zm-5.168,3.021v-5.689h1.773a2.985,2.985,0,0,1,.92.1,1.274,1.274,0,0,1,.652.559,1.924,1.924,0,0,1,.24.992,1.957,1.957,0,0,1-.391,1.264,1.678,1.678,0,0,1-1.367.486h-1.145v2.285Zm.684-3.021h1.152a1.1,1.1,0,0,0,.789-.246.977.977,0,0,0,.26-.738,1.168,1.168,0,0,0-.131-.549.678.678,0,0,0-.289-.312,1.716,1.716,0,0,0-.637-.078h-1.145Zm-1.039-4.656a3.536,3.536,0,0,1-.965-.68,2.027,2.027,0,0,1-1.127.336,1.985,1.985,0,0,1-1.668-.9,3.456,3.456,0,0,1-.57-2.037,3.964,3.964,0,0,1,.3-1.6,2.4,2.4,0,0,1,.809-1.014,2.005,2.005,0,0,1,1.133-.338,1.952,1.952,0,0,1,1.129.352,2.364,2.364,0,0,1,.816,1.014,3.931,3.931,0,0,1,.295,1.57,4.271,4.271,0,0,1-.182,1.275,2.891,2.891,0,0,1-.492.936,3.554,3.554,0,0,0,.738.486l.031.018-.209.59Zm-3.18-4.955a2.693,2.693,0,0,0-.439,1.678,2.66,2.66,0,0,0,.447,1.662,1.365,1.365,0,0,0,1.1.561,1.277,1.277,0,0,0,.533-.121,1.616,1.616,0,0,0-.545-.27l-.039-.018.176-.615.041.006a2.429,2.429,0,0,1,.855.52,2.669,2.669,0,0,0,.492-1.738,3.181,3.181,0,0,0-.2-1.217,1.673,1.673,0,0,0-.549-.75,1.29,1.29,0,0,0-.766-.258A1.36,1.36,0,0,0,12669.076,16047.271Zm34.283,4.092a1.972,1.972,0,0,1-.537-1.414v-.041l.648-.07.006.045a1.689,1.689,0,0,0,.2.7,1.176,1.176,0,0,0,.447.4,1.469,1.469,0,0,0,.662.152,1.2,1.2,0,0,0,.814-.254.851.851,0,0,0,.287-.664.735.735,0,0,0-.1-.408.707.707,0,0,0-.312-.295,6.392,6.392,0,0,0-.943-.328,3.578,3.578,0,0,1-.934-.391,1.387,1.387,0,0,1-.439-.512,1.556,1.556,0,0,1-.16-.7,1.523,1.523,0,0,1,.457-1.143,1.627,1.627,0,0,1,1.205-.449,1.972,1.972,0,0,1,.92.209,1.464,1.464,0,0,1,.615.6,1.94,1.94,0,0,1,.232.912v.031l-.666.064v-.039a1.149,1.149,0,0,0-.318-.785,1.073,1.073,0,0,0-.758-.254,1.138,1.138,0,0,0-.77.225.717.717,0,0,0-.254.566.648.648,0,0,0,.184.5,2.407,2.407,0,0,0,.881.373,5,5,0,0,1,.965.33,1.5,1.5,0,0,1,.873,1.436,1.825,1.825,0,0,1-.232.9,1.511,1.511,0,0,1-.633.615,1.972,1.972,0,0,1-.951.215A1.864,1.864,0,0,1,12703.359,16051.362Zm-9.965-.383a3.351,3.351,0,0,1-.568-1.961,3.47,3.47,0,0,1,.639-2.236,2,2,0,0,1,1.605-.783,1.96,1.96,0,0,1,1.127.352,2.4,2.4,0,0,1,.818,1.014,4.014,4.014,0,0,1,.295,1.584,3.473,3.473,0,0,1-.578,2.053,2,2,0,0,1-3.338-.021Zm.574-3.7a2.863,2.863,0,0,0-.439,1.746,2.5,2.5,0,0,0,.447,1.584,1.374,1.374,0,0,0,1.086.561,1.339,1.339,0,0,0,1.088-.561,2.711,2.711,0,0,0,.445-1.676,3.436,3.436,0,0,0-.229-1.281,1.555,1.555,0,0,0-.527-.686,1.266,1.266,0,0,0-.77-.248A1.33,1.33,0,0,0,12693.969,16047.28Zm21.377,4.266a2.415,2.415,0,0,1-.848-1.008,3.585,3.585,0,0,1-.311-1.566,3.885,3.885,0,0,1,.311-1.621,2.413,2.413,0,0,1,.82-1.023,2.262,2.262,0,0,1,1.217-.328,2,2,0,0,1,.895.191,1.629,1.629,0,0,1,.641.545,2.481,2.481,0,0,1,.375.957l.008.033-.623.215-.01-.045a2.033,2.033,0,0,0-.27-.7,1.193,1.193,0,0,0-.432-.354,1.34,1.34,0,0,0-.6-.137,1.435,1.435,0,0,0-.842.242,1.655,1.655,0,0,0-.574.732,3.327,3.327,0,0,0-.215,1.24,2.573,2.573,0,0,0,.461,1.66,1.506,1.506,0,0,0,1.193.545,1.754,1.754,0,0,0,.729-.168,1.912,1.912,0,0,0,.574-.383v-.992h-1.354v-.74h2.023v2.139l-.01.008a3.248,3.248,0,0,1-.934.664,2.394,2.394,0,0,1-1.008.225A2.294,2.294,0,0,1,12715.346,16051.546Zm-16.693-.217a3.142,3.142,0,0,1-.465-1.949v-3.285h.688v3.285a3.643,3.643,0,0,0,.119,1.088.912.912,0,0,0,.377.494,1.332,1.332,0,0,0,1.543-.178,2.4,2.4,0,0,0,.287-1.4v-3.285h.686v3.285a4.9,4.9,0,0,1-.158,1.35,1.633,1.633,0,0,1-.59.846,1.861,1.861,0,0,1-1.088.307A1.736,1.736,0,0,1,12698.652,16051.329Zm-24.861,0a3.079,3.079,0,0,1-.463-1.949v-3.285h.688v3.285a3.517,3.517,0,0,0,.119,1.088.944.944,0,0,0,.367.494,1.147,1.147,0,0,0,.639.176,1.118,1.118,0,0,0,.912-.354,2.462,2.462,0,0,0,.277-1.4v-3.285h.7v3.285a4.515,4.515,0,0,1-.168,1.35,1.523,1.523,0,0,1-.592.846,1.809,1.809,0,0,1-1.086.307A1.711,1.711,0,0,1,12673.791,16051.329Zm33.836.465v-5.7h.684v5.7Zm-43.967,0v-5.689h3.414v.734h-2.721v1.639h2.543v.74h-2.543v1.832h2.82v.744Zm48.832-.008-.018-.018-2.332-4.275v4.293h-.672v-5.691h.689l.016.025,2.34,4.273v-4.3h.666v5.691Zm-21.328,0v-2.646h-2.316v2.646h-.687v-5.691h.688v2.311h2.316v-2.311h.688v5.691Zm-8.559,0v-5.691h.688v4.947h2.27v.744Zm-1.326,0-.537-1.7h-1.869l-.5,1.7h-.729l1.8-5.691h.711l.008.033,1.9,5.658Zm-1.709-3.973-.5,1.59h1.453l-.465-1.5c-.109-.387-.205-.711-.277-.977C12679.727,16047.222,12679.656,16047.517,12679.57,16047.813Z" transform="translate(-11450.961 -15327.998)" stroke="rgba(0,0,0,0)" stroke-width="1"/>
    <path id="Path_7105" data-name="Path 7105" d="M12685.734,16066h-17.125v-10.062h-4.953l3.547-2.453,10.008-6.953.773-.531.766.547,9.8,6.938,3.469,2.453h-4.945V16066Zm-17.758-11.406h1.992v10.047h15.766v-10.047h2.047l-9.8-6.953Zm5.023,7.719v-1.828h9.82v1.828Zm0-4.172v-1.828h9.82v1.828Z" transform="translate(-11487.324 -15331)" stroke="rgba(0,0,0,0)" stroke-width="1"/>
  </g>
</svg>
